<svg width="24" height="24" viewBox="0 0 24 24" fill="none" xmlns="http://www.w3.org/2000/svg">
<circle cx="12" cy="12" r="11.5" stroke="white" stroke-opacity="0.8"/>
<path fill-rule="evenodd" clip-rule="evenodd" d="M16.92 8.44943C17.0192 8.35029 17.1538 8.2946 17.2941 8.2946C17.4344 8.2946 17.5689 8.35029 17.6682 8.44943L17.6696 8.45084L17.6717 8.45225L17.6767 8.45719L17.6908 8.47131L17.7346 8.52002C17.7699 8.56025 17.8193 8.61743 17.8764 8.69013C18.5287 9.53788 18.8823 10.5775 18.8823 11.6471C18.8823 12.7167 18.5287 13.7563 17.8764 14.604C17.8173 14.6795 17.7552 14.7525 17.6901 14.8228L17.676 14.837L17.6717 14.8419L17.6696 14.8433L17.6689 14.844L17.3089 14.4854L17.6689 14.8454C17.5696 14.9447 17.4349 15.0005 17.2944 15.0005C17.154 15.0005 17.0193 14.9447 16.92 14.8454C16.8207 14.7461 16.7649 14.6114 16.7649 14.471C16.7649 14.3305 16.8207 14.1958 16.92 14.0965L16.9193 14.0972L16.9179 14.0979L16.9214 14.0944L16.9447 14.069C16.9673 14.0445 17 14.0052 17.0428 13.9511C17.4894 13.3681 17.757 12.668 17.8131 11.9358C17.8693 11.2036 17.7115 10.4708 17.359 9.8266C17.267 9.65706 17.1613 9.49534 17.0428 9.34307C17.0045 9.29354 16.964 9.24573 16.9214 9.19978L16.9179 9.19625C16.8194 9.09676 16.7644 8.96235 16.7648 8.8224C16.7652 8.68245 16.821 8.54835 16.92 8.44943ZM12.732 5.9266C13.5529 5.38519 14.647 5.9746 14.647 6.9579V17.0421C14.647 18.0261 13.5529 18.6148 12.732 18.0734L8.49668 15.2817C8.46803 15.2626 8.43442 15.2523 8.39998 15.252H6.35292C5.83809 15.252 5.34434 15.0475 4.9803 14.6835C4.61626 14.3194 4.41174 13.8257 4.41174 13.3108V10.6892C4.41174 10.1744 4.61626 9.68061 4.9803 9.31657C5.34434 8.95253 5.83809 8.74802 6.35292 8.74802H8.39998C8.43458 8.74813 8.46846 8.73806 8.49739 8.71907L12.732 5.9266Z" fill="white" fill-opacity="0.8"/>
</svg>
