<svg width="11" height="9" viewBox="0 0 11 9" fill="none" xmlns="http://www.w3.org/2000/svg">
<path d="M1 4.5C1 4.22 1.22 4 1.5 4H10.5C10.78 4 11 4.22 11 4.5C11 4.78 10.78 5 10.5 5H1.5C1.22 5 1 4.78 1 4.5Z" fill="white"/>
<path d="M-0.000234127 4.5C-0.00103355 4.43442 0.0118991 4.36941 0.0377326 4.30913C0.0635661 4.24885 0.101728 4.19465 0.149765 4.15L3.64977 0.65C3.84977 0.45 4.15977 0.45 4.35977 0.65C4.55977 0.85 4.55977 1.16 4.35977 1.36L1.20977 4.51L4.35977 7.66C4.55977 7.86 4.55977 8.17 4.35977 8.37C4.15977 8.57 3.84977 8.57 3.64977 8.37L0.149765 4.87C0.0497655 4.77 -0.000234127 4.64 -0.000234127 4.52V4.5Z" fill="white"/>
</svg>
