<svg width="57" height="42" viewBox="0 0 57 42" fill="none" xmlns="http://www.w3.org/2000/svg">
<circle cx="21" cy="21" r="21" fill="white"/>
<path d="M56.7071 21.7071C57.0976 21.3166 57.0976 20.6834 56.7071 20.2929L50.3431 13.9289C49.9526 13.5384 49.3195 13.5384 48.9289 13.9289C48.5384 14.3195 48.5384 14.9526 48.9289 15.3431L54.5858 21L48.9289 26.6569C48.5384 27.0474 48.5384 27.6805 48.9289 28.0711C49.3195 28.4616 49.9526 28.4616 50.3431 28.0711L56.7071 21.7071ZM22 22H56V20H22V22Z" fill="white"/>
<path d="M22 20C21.4477 20 21 20.4477 21 21C21 21.5523 21.4477 22 22 22V20ZM22 22H42V20H22V22Z" fill="black"/>
</svg>
